# xmcd
#
# Track frame offsets:
#	150
#	12063
#	25793
#	36320
#	47787
#	60718
#	73250
#	88980
#	107303
#	119264
#	131276
#	147524
#	158108
#	168125
#	178901
#
# Disc length: 2540 seconds
#
# Revision: 1
# Processed by: cddbd v1.5.1PL0 Copyright (c) Steve Scherf et al.
# Submitted via: audiograbber 1.83.01
#
DISCID=ca09ea0f
DTITLE=Various Artist - On The Road Especially For Truckers!! Vol. 7
DYEAR=2004
DGENRE=Country
TTITLE0=Highway - Do You Wanna Dance
TTITLE1=Dixie Aces - Truck Drivin' Man
TTITLE2=Bobby Prins - Pretty Little Linda
TTITLE3=That's Right and Roland Konings Band - Princess In Rags
TTITLE4=Black Devils - Let's Dance
TTITLE5=Danny Fabry - See You Later Alligator
TTITLE6=Andy Tielman and The Tielman Brothers - Blue Bayou
TTITLE7=John v. d. Weide - Can't See You
TTITLE8=Tamaras - Lana Lee
TTITLE9=Roland Konings Band - Can't Say Goodbye
TTITLE10=Dixie Aces - California Blue
TTITLE11=Andy Tielman and The Tielmans Brothers - Hurt
TTITLE12=Pleasure - You're So Sweet
TTITLE13=Roland Konings Band - Laugh
TTITLE14=Bobby Prins - Lover Please
EXTD=
EXTT0=
EXTT1=
EXTT2=
EXTT3=
EXTT4=
EXTT5=
EXTT6=
EXTT7=
EXTT8=
EXTT9=
EXTT10=
EXTT11=
EXTT12=
EXTT13=
EXTT14=
PLAYORDER=
